<mxfile host="app.diagrams.net" modified="2021-07-17T01:01:00.983Z" agent="5.0 (Windows)" etag="oJFVNmmppOQnR2WNEgo1" version="14.8.5" type="github">
  <diagram id="gIogGsXuzQi1VI0tjLUq" name="Page-1">
    <mxGraphModel dx="1422" dy="763" grid="1" gridSize="10" guides="1" tooltips="1" connect="1" arrows="1" fold="1" page="1" pageScale="1" pageWidth="4681" pageHeight="3300" math="0" shadow="0">
      <root>
        <mxCell id="0" />
        <mxCell id="1" parent="0" />
        <mxCell id="aOOabZM7SZLnajDP1h2--1" value="" style="rounded=0;whiteSpace=wrap;html=1;" parent="1" vertex="1">
          <mxGeometry x="220" y="120" width="40" height="160" as="geometry" />
        </mxCell>
        <mxCell id="aOOabZM7SZLnajDP1h2--2" value="" style="rounded=0;whiteSpace=wrap;html=1;" parent="1" vertex="1">
          <mxGeometry x="220" y="160" width="40" height="40" as="geometry" />
        </mxCell>
        <mxCell id="aOOabZM7SZLnajDP1h2--3" value="" style="rounded=0;whiteSpace=wrap;html=1;" parent="1" vertex="1">
          <mxGeometry x="220" y="200" width="40" height="40" as="geometry" />
        </mxCell>
        <mxCell id="aOOabZM7SZLnajDP1h2--4" value="" style="rounded=0;whiteSpace=wrap;html=1;" parent="1" vertex="1">
          <mxGeometry x="220" y="240" width="40" height="40" as="geometry" />
        </mxCell>
        <mxCell id="aOOabZM7SZLnajDP1h2--5" value="" style="rounded=0;whiteSpace=wrap;html=1;fillColor=#ffe6cc;strokeColor=#d79b00;" parent="1" vertex="1">
          <mxGeometry x="220" y="120" width="40" height="40" as="geometry" />
        </mxCell>
        <mxCell id="aOOabZM7SZLnajDP1h2--6" value="&lt;div&gt;A&lt;/div&gt;" style="text;html=1;strokeColor=none;fillColor=none;align=center;verticalAlign=middle;whiteSpace=wrap;rounded=0;" parent="1" vertex="1">
          <mxGeometry x="220" y="130" width="40" height="20" as="geometry" />
        </mxCell>
        <mxCell id="aOOabZM7SZLnajDP1h2--7" value="C" style="text;html=1;strokeColor=none;fillColor=none;align=center;verticalAlign=middle;whiteSpace=wrap;rounded=0;" parent="1" vertex="1">
          <mxGeometry x="220" y="170" width="40" height="20" as="geometry" />
        </mxCell>
        <mxCell id="aOOabZM7SZLnajDP1h2--8" value="G" style="text;html=1;strokeColor=none;fillColor=none;align=center;verticalAlign=middle;whiteSpace=wrap;rounded=0;" parent="1" vertex="1">
          <mxGeometry x="220" y="210" width="40" height="20" as="geometry" />
        </mxCell>
        <mxCell id="aOOabZM7SZLnajDP1h2--9" value="T" style="text;html=1;strokeColor=none;fillColor=none;align=center;verticalAlign=middle;whiteSpace=wrap;rounded=0;" parent="1" vertex="1">
          <mxGeometry x="220" y="250" width="40" height="20" as="geometry" />
        </mxCell>
        <mxCell id="aOOabZM7SZLnajDP1h2--10" value="" style="rounded=0;whiteSpace=wrap;html=1;" parent="1" vertex="1">
          <mxGeometry x="260" y="120" width="40" height="160" as="geometry" />
        </mxCell>
        <mxCell id="aOOabZM7SZLnajDP1h2--11" value="" style="rounded=0;whiteSpace=wrap;html=1;fillColor=#dae8fc;strokeColor=#6c8ebf;" parent="1" vertex="1">
          <mxGeometry x="260" y="160" width="40" height="40" as="geometry" />
        </mxCell>
        <mxCell id="aOOabZM7SZLnajDP1h2--12" value="" style="rounded=0;whiteSpace=wrap;html=1;" parent="1" vertex="1">
          <mxGeometry x="260" y="200" width="40" height="40" as="geometry" />
        </mxCell>
        <mxCell id="aOOabZM7SZLnajDP1h2--13" value="" style="rounded=0;whiteSpace=wrap;html=1;" parent="1" vertex="1">
          <mxGeometry x="260" y="240" width="40" height="40" as="geometry" />
        </mxCell>
        <mxCell id="aOOabZM7SZLnajDP1h2--14" value="" style="rounded=0;whiteSpace=wrap;html=1;" parent="1" vertex="1">
          <mxGeometry x="260" y="120" width="40" height="40" as="geometry" />
        </mxCell>
        <mxCell id="aOOabZM7SZLnajDP1h2--15" value="&lt;div&gt;A&lt;/div&gt;" style="text;html=1;strokeColor=none;fillColor=none;align=center;verticalAlign=middle;whiteSpace=wrap;rounded=0;" parent="1" vertex="1">
          <mxGeometry x="260" y="130" width="40" height="20" as="geometry" />
        </mxCell>
        <mxCell id="aOOabZM7SZLnajDP1h2--16" value="C" style="text;html=1;strokeColor=none;fillColor=none;align=center;verticalAlign=middle;whiteSpace=wrap;rounded=0;" parent="1" vertex="1">
          <mxGeometry x="260" y="170" width="40" height="20" as="geometry" />
        </mxCell>
        <mxCell id="aOOabZM7SZLnajDP1h2--17" value="G" style="text;html=1;strokeColor=none;fillColor=none;align=center;verticalAlign=middle;whiteSpace=wrap;rounded=0;" parent="1" vertex="1">
          <mxGeometry x="260" y="210" width="40" height="20" as="geometry" />
        </mxCell>
        <mxCell id="aOOabZM7SZLnajDP1h2--18" value="T" style="text;html=1;strokeColor=none;fillColor=none;align=center;verticalAlign=middle;whiteSpace=wrap;rounded=0;" parent="1" vertex="1">
          <mxGeometry x="260" y="250" width="40" height="20" as="geometry" />
        </mxCell>
        <mxCell id="aOOabZM7SZLnajDP1h2--19" value="" style="rounded=0;whiteSpace=wrap;html=1;" parent="1" vertex="1">
          <mxGeometry x="260" y="120" width="40" height="160" as="geometry" />
        </mxCell>
        <mxCell id="aOOabZM7SZLnajDP1h2--20" value="" style="rounded=0;whiteSpace=wrap;html=1;fillColor=#dae8fc;strokeColor=#6c8ebf;" parent="1" vertex="1">
          <mxGeometry x="260" y="160" width="40" height="40" as="geometry" />
        </mxCell>
        <mxCell id="aOOabZM7SZLnajDP1h2--21" value="" style="rounded=0;whiteSpace=wrap;html=1;" parent="1" vertex="1">
          <mxGeometry x="260" y="200" width="40" height="40" as="geometry" />
        </mxCell>
        <mxCell id="aOOabZM7SZLnajDP1h2--22" value="" style="rounded=0;whiteSpace=wrap;html=1;" parent="1" vertex="1">
          <mxGeometry x="260" y="240" width="40" height="40" as="geometry" />
        </mxCell>
        <mxCell id="aOOabZM7SZLnajDP1h2--23" value="" style="rounded=0;whiteSpace=wrap;html=1;" parent="1" vertex="1">
          <mxGeometry x="260" y="120" width="40" height="40" as="geometry" />
        </mxCell>
        <mxCell id="aOOabZM7SZLnajDP1h2--24" value="&lt;div&gt;A&lt;/div&gt;" style="text;html=1;strokeColor=none;fillColor=none;align=center;verticalAlign=middle;whiteSpace=wrap;rounded=0;" parent="1" vertex="1">
          <mxGeometry x="260" y="130" width="40" height="20" as="geometry" />
        </mxCell>
        <mxCell id="aOOabZM7SZLnajDP1h2--25" value="C" style="text;html=1;strokeColor=none;fillColor=none;align=center;verticalAlign=middle;whiteSpace=wrap;rounded=0;" parent="1" vertex="1">
          <mxGeometry x="260" y="170" width="40" height="20" as="geometry" />
        </mxCell>
        <mxCell id="aOOabZM7SZLnajDP1h2--26" value="G" style="text;html=1;strokeColor=none;fillColor=none;align=center;verticalAlign=middle;whiteSpace=wrap;rounded=0;" parent="1" vertex="1">
          <mxGeometry x="260" y="210" width="40" height="20" as="geometry" />
        </mxCell>
        <mxCell id="aOOabZM7SZLnajDP1h2--27" value="T" style="text;html=1;strokeColor=none;fillColor=none;align=center;verticalAlign=middle;whiteSpace=wrap;rounded=0;" parent="1" vertex="1">
          <mxGeometry x="260" y="250" width="40" height="20" as="geometry" />
        </mxCell>
        <mxCell id="aOOabZM7SZLnajDP1h2--28" value="" style="rounded=0;whiteSpace=wrap;html=1;" parent="1" vertex="1">
          <mxGeometry x="300" y="120" width="40" height="160" as="geometry" />
        </mxCell>
        <mxCell id="aOOabZM7SZLnajDP1h2--29" value="" style="rounded=0;whiteSpace=wrap;html=1;fillColor=#dae8fc;strokeColor=#6c8ebf;" parent="1" vertex="1">
          <mxGeometry x="300" y="160" width="40" height="40" as="geometry" />
        </mxCell>
        <mxCell id="aOOabZM7SZLnajDP1h2--30" value="" style="rounded=0;whiteSpace=wrap;html=1;" parent="1" vertex="1">
          <mxGeometry x="300" y="200" width="40" height="40" as="geometry" />
        </mxCell>
        <mxCell id="aOOabZM7SZLnajDP1h2--31" value="" style="rounded=0;whiteSpace=wrap;html=1;" parent="1" vertex="1">
          <mxGeometry x="300" y="240" width="40" height="40" as="geometry" />
        </mxCell>
        <mxCell id="aOOabZM7SZLnajDP1h2--32" value="" style="rounded=0;whiteSpace=wrap;html=1;" parent="1" vertex="1">
          <mxGeometry x="300" y="120" width="40" height="40" as="geometry" />
        </mxCell>
        <mxCell id="aOOabZM7SZLnajDP1h2--33" value="&lt;div&gt;A&lt;/div&gt;" style="text;html=1;strokeColor=none;fillColor=none;align=center;verticalAlign=middle;whiteSpace=wrap;rounded=0;" parent="1" vertex="1">
          <mxGeometry x="300" y="130" width="40" height="20" as="geometry" />
        </mxCell>
        <mxCell id="aOOabZM7SZLnajDP1h2--34" value="C" style="text;html=1;strokeColor=none;fillColor=none;align=center;verticalAlign=middle;whiteSpace=wrap;rounded=0;" parent="1" vertex="1">
          <mxGeometry x="300" y="170" width="40" height="20" as="geometry" />
        </mxCell>
        <mxCell id="aOOabZM7SZLnajDP1h2--35" value="G" style="text;html=1;strokeColor=none;fillColor=none;align=center;verticalAlign=middle;whiteSpace=wrap;rounded=0;" parent="1" vertex="1">
          <mxGeometry x="300" y="210" width="40" height="20" as="geometry" />
        </mxCell>
        <mxCell id="aOOabZM7SZLnajDP1h2--36" value="T" style="text;html=1;strokeColor=none;fillColor=none;align=center;verticalAlign=middle;whiteSpace=wrap;rounded=0;" parent="1" vertex="1">
          <mxGeometry x="300" y="250" width="40" height="20" as="geometry" />
        </mxCell>
        <mxCell id="aOOabZM7SZLnajDP1h2--37" value="" style="rounded=0;whiteSpace=wrap;html=1;" parent="1" vertex="1">
          <mxGeometry x="300" y="120" width="40" height="160" as="geometry" />
        </mxCell>
        <mxCell id="aOOabZM7SZLnajDP1h2--38" value="" style="rounded=0;whiteSpace=wrap;html=1;" parent="1" vertex="1">
          <mxGeometry x="300" y="160" width="40" height="40" as="geometry" />
        </mxCell>
        <mxCell id="aOOabZM7SZLnajDP1h2--39" value="" style="rounded=0;whiteSpace=wrap;html=1;fillColor=#f8cecc;strokeColor=#b85450;" parent="1" vertex="1">
          <mxGeometry x="300" y="200" width="40" height="40" as="geometry" />
        </mxCell>
        <mxCell id="aOOabZM7SZLnajDP1h2--40" value="" style="rounded=0;whiteSpace=wrap;html=1;" parent="1" vertex="1">
          <mxGeometry x="300" y="240" width="40" height="40" as="geometry" />
        </mxCell>
        <mxCell id="aOOabZM7SZLnajDP1h2--41" value="" style="rounded=0;whiteSpace=wrap;html=1;" parent="1" vertex="1">
          <mxGeometry x="300" y="120" width="40" height="40" as="geometry" />
        </mxCell>
        <mxCell id="aOOabZM7SZLnajDP1h2--42" value="&lt;div&gt;A&lt;/div&gt;" style="text;html=1;strokeColor=none;fillColor=none;align=center;verticalAlign=middle;whiteSpace=wrap;rounded=0;" parent="1" vertex="1">
          <mxGeometry x="300" y="130" width="40" height="20" as="geometry" />
        </mxCell>
        <mxCell id="aOOabZM7SZLnajDP1h2--43" value="C" style="text;html=1;strokeColor=none;fillColor=none;align=center;verticalAlign=middle;whiteSpace=wrap;rounded=0;" parent="1" vertex="1">
          <mxGeometry x="300" y="170" width="40" height="20" as="geometry" />
        </mxCell>
        <mxCell id="aOOabZM7SZLnajDP1h2--44" value="G" style="text;html=1;strokeColor=none;fillColor=none;align=center;verticalAlign=middle;whiteSpace=wrap;rounded=0;" parent="1" vertex="1">
          <mxGeometry x="300" y="210" width="40" height="20" as="geometry" />
        </mxCell>
        <mxCell id="aOOabZM7SZLnajDP1h2--45" value="T" style="text;html=1;strokeColor=none;fillColor=none;align=center;verticalAlign=middle;whiteSpace=wrap;rounded=0;" parent="1" vertex="1">
          <mxGeometry x="300" y="250" width="40" height="20" as="geometry" />
        </mxCell>
        <mxCell id="aOOabZM7SZLnajDP1h2--46" value="" style="rounded=0;whiteSpace=wrap;html=1;" parent="1" vertex="1">
          <mxGeometry x="340" y="120" width="40" height="160" as="geometry" />
        </mxCell>
        <mxCell id="aOOabZM7SZLnajDP1h2--47" value="" style="rounded=0;whiteSpace=wrap;html=1;fillColor=#dae8fc;strokeColor=#6c8ebf;" parent="1" vertex="1">
          <mxGeometry x="340" y="160" width="40" height="40" as="geometry" />
        </mxCell>
        <mxCell id="aOOabZM7SZLnajDP1h2--48" value="" style="rounded=0;whiteSpace=wrap;html=1;" parent="1" vertex="1">
          <mxGeometry x="340" y="200" width="40" height="40" as="geometry" />
        </mxCell>
        <mxCell id="aOOabZM7SZLnajDP1h2--49" value="" style="rounded=0;whiteSpace=wrap;html=1;" parent="1" vertex="1">
          <mxGeometry x="340" y="240" width="40" height="40" as="geometry" />
        </mxCell>
        <mxCell id="aOOabZM7SZLnajDP1h2--50" value="" style="rounded=0;whiteSpace=wrap;html=1;" parent="1" vertex="1">
          <mxGeometry x="340" y="120" width="40" height="40" as="geometry" />
        </mxCell>
        <mxCell id="aOOabZM7SZLnajDP1h2--51" value="&lt;div&gt;A&lt;/div&gt;" style="text;html=1;strokeColor=none;fillColor=none;align=center;verticalAlign=middle;whiteSpace=wrap;rounded=0;" parent="1" vertex="1">
          <mxGeometry x="340" y="130" width="40" height="20" as="geometry" />
        </mxCell>
        <mxCell id="aOOabZM7SZLnajDP1h2--52" value="C" style="text;html=1;strokeColor=none;fillColor=none;align=center;verticalAlign=middle;whiteSpace=wrap;rounded=0;" parent="1" vertex="1">
          <mxGeometry x="340" y="170" width="40" height="20" as="geometry" />
        </mxCell>
        <mxCell id="aOOabZM7SZLnajDP1h2--53" value="G" style="text;html=1;strokeColor=none;fillColor=none;align=center;verticalAlign=middle;whiteSpace=wrap;rounded=0;" parent="1" vertex="1">
          <mxGeometry x="340" y="210" width="40" height="20" as="geometry" />
        </mxCell>
        <mxCell id="aOOabZM7SZLnajDP1h2--54" value="T" style="text;html=1;strokeColor=none;fillColor=none;align=center;verticalAlign=middle;whiteSpace=wrap;rounded=0;" parent="1" vertex="1">
          <mxGeometry x="340" y="250" width="40" height="20" as="geometry" />
        </mxCell>
        <mxCell id="aOOabZM7SZLnajDP1h2--55" value="" style="rounded=0;whiteSpace=wrap;html=1;" parent="1" vertex="1">
          <mxGeometry x="340" y="120" width="40" height="160" as="geometry" />
        </mxCell>
        <mxCell id="aOOabZM7SZLnajDP1h2--56" value="" style="rounded=0;whiteSpace=wrap;html=1;" parent="1" vertex="1">
          <mxGeometry x="340" y="160" width="40" height="40" as="geometry" />
        </mxCell>
        <mxCell id="aOOabZM7SZLnajDP1h2--57" value="" style="rounded=0;whiteSpace=wrap;html=1;" parent="1" vertex="1">
          <mxGeometry x="340" y="200" width="40" height="40" as="geometry" />
        </mxCell>
        <mxCell id="aOOabZM7SZLnajDP1h2--58" value="" style="rounded=0;whiteSpace=wrap;html=1;fillColor=#d5e8d4;strokeColor=#82b366;" parent="1" vertex="1">
          <mxGeometry x="340" y="240" width="40" height="40" as="geometry" />
        </mxCell>
        <mxCell id="aOOabZM7SZLnajDP1h2--59" value="" style="rounded=0;whiteSpace=wrap;html=1;" parent="1" vertex="1">
          <mxGeometry x="340" y="120" width="40" height="40" as="geometry" />
        </mxCell>
        <mxCell id="aOOabZM7SZLnajDP1h2--60" value="&lt;div&gt;A&lt;/div&gt;" style="text;html=1;strokeColor=none;fillColor=none;align=center;verticalAlign=middle;whiteSpace=wrap;rounded=0;" parent="1" vertex="1">
          <mxGeometry x="340" y="130" width="40" height="20" as="geometry" />
        </mxCell>
        <mxCell id="aOOabZM7SZLnajDP1h2--61" style="edgeStyle=orthogonalEdgeStyle;curved=1;rounded=0;orthogonalLoop=1;jettySize=auto;html=1;entryX=0;entryY=0;entryDx=0;entryDy=0;exitX=1;exitY=0;exitDx=0;exitDy=0;" parent="1" source="aOOabZM7SZLnajDP1h2--57" edge="1">
          <mxGeometry relative="1" as="geometry">
            <Array as="points">
              <mxPoint x="410" y="200" />
              <mxPoint x="410" y="324" />
            </Array>
            <mxPoint x="470" y="324" as="targetPoint" />
          </mxGeometry>
        </mxCell>
        <mxCell id="aOOabZM7SZLnajDP1h2--62" value="C" style="text;html=1;align=center;verticalAlign=middle;whiteSpace=wrap;rounded=0;" parent="1" vertex="1">
          <mxGeometry x="340" y="170" width="40" height="20" as="geometry" />
        </mxCell>
        <mxCell id="aOOabZM7SZLnajDP1h2--63" value="G" style="text;html=1;strokeColor=none;fillColor=none;align=center;verticalAlign=middle;whiteSpace=wrap;rounded=0;" parent="1" vertex="1">
          <mxGeometry x="340" y="210" width="40" height="20" as="geometry" />
        </mxCell>
        <mxCell id="aOOabZM7SZLnajDP1h2--64" value="T" style="text;html=1;strokeColor=none;fillColor=none;align=center;verticalAlign=middle;whiteSpace=wrap;rounded=0;" parent="1" vertex="1">
          <mxGeometry x="340" y="250" width="40" height="20" as="geometry" />
        </mxCell>
        <mxCell id="aOOabZM7SZLnajDP1h2--65" value="&lt;div&gt;Promoter in one-hot&lt;/div&gt;" style="text;html=1;strokeColor=none;fillColor=none;align=center;verticalAlign=middle;whiteSpace=wrap;rounded=0;" parent="1" vertex="1">
          <mxGeometry x="220" y="290" width="160" height="20" as="geometry" />
        </mxCell>
        <mxCell id="aOOabZM7SZLnajDP1h2--66" value="" style="rounded=0;whiteSpace=wrap;html=1;" parent="1" vertex="1">
          <mxGeometry x="220" y="360" width="40" height="160" as="geometry" />
        </mxCell>
        <mxCell id="aOOabZM7SZLnajDP1h2--67" value="" style="rounded=0;whiteSpace=wrap;html=1;" parent="1" vertex="1">
          <mxGeometry x="220" y="400" width="40" height="40" as="geometry" />
        </mxCell>
        <mxCell id="aOOabZM7SZLnajDP1h2--68" value="" style="rounded=0;whiteSpace=wrap;html=1;" parent="1" vertex="1">
          <mxGeometry x="220" y="440" width="40" height="40" as="geometry" />
        </mxCell>
        <mxCell id="aOOabZM7SZLnajDP1h2--69" value="" style="rounded=0;whiteSpace=wrap;html=1;" parent="1" vertex="1">
          <mxGeometry x="220" y="480" width="40" height="40" as="geometry" />
        </mxCell>
        <mxCell id="aOOabZM7SZLnajDP1h2--70" value="" style="rounded=0;whiteSpace=wrap;html=1;fillColor=#ffe6cc;strokeColor=#d79b00;" parent="1" vertex="1">
          <mxGeometry x="220" y="360" width="40" height="40" as="geometry" />
        </mxCell>
        <mxCell id="aOOabZM7SZLnajDP1h2--71" value="&lt;div&gt;A&lt;/div&gt;" style="text;html=1;strokeColor=none;fillColor=none;align=center;verticalAlign=middle;whiteSpace=wrap;rounded=0;" parent="1" vertex="1">
          <mxGeometry x="220" y="370" width="40" height="20" as="geometry" />
        </mxCell>
        <mxCell id="aOOabZM7SZLnajDP1h2--72" value="C" style="text;html=1;strokeColor=none;fillColor=none;align=center;verticalAlign=middle;whiteSpace=wrap;rounded=0;" parent="1" vertex="1">
          <mxGeometry x="220" y="410" width="40" height="20" as="geometry" />
        </mxCell>
        <mxCell id="aOOabZM7SZLnajDP1h2--73" value="G" style="text;html=1;strokeColor=none;fillColor=none;align=center;verticalAlign=middle;whiteSpace=wrap;rounded=0;" parent="1" vertex="1">
          <mxGeometry x="220" y="450" width="40" height="20" as="geometry" />
        </mxCell>
        <mxCell id="aOOabZM7SZLnajDP1h2--74" value="T" style="text;html=1;strokeColor=none;fillColor=none;align=center;verticalAlign=middle;whiteSpace=wrap;rounded=0;" parent="1" vertex="1">
          <mxGeometry x="220" y="490" width="40" height="20" as="geometry" />
        </mxCell>
        <mxCell id="aOOabZM7SZLnajDP1h2--75" value="" style="rounded=0;whiteSpace=wrap;html=1;" parent="1" vertex="1">
          <mxGeometry x="260" y="360" width="40" height="160" as="geometry" />
        </mxCell>
        <mxCell id="aOOabZM7SZLnajDP1h2--76" value="" style="rounded=0;whiteSpace=wrap;html=1;fillColor=#dae8fc;strokeColor=#6c8ebf;" parent="1" vertex="1">
          <mxGeometry x="260" y="400" width="40" height="40" as="geometry" />
        </mxCell>
        <mxCell id="aOOabZM7SZLnajDP1h2--77" value="" style="rounded=0;whiteSpace=wrap;html=1;" parent="1" vertex="1">
          <mxGeometry x="260" y="440" width="40" height="40" as="geometry" />
        </mxCell>
        <mxCell id="aOOabZM7SZLnajDP1h2--78" value="" style="rounded=0;whiteSpace=wrap;html=1;" parent="1" vertex="1">
          <mxGeometry x="260" y="480" width="40" height="40" as="geometry" />
        </mxCell>
        <mxCell id="aOOabZM7SZLnajDP1h2--79" value="" style="rounded=0;whiteSpace=wrap;html=1;" parent="1" vertex="1">
          <mxGeometry x="260" y="360" width="40" height="40" as="geometry" />
        </mxCell>
        <mxCell id="aOOabZM7SZLnajDP1h2--80" value="&lt;div&gt;A&lt;/div&gt;" style="text;html=1;strokeColor=none;fillColor=none;align=center;verticalAlign=middle;whiteSpace=wrap;rounded=0;" parent="1" vertex="1">
          <mxGeometry x="260" y="370" width="40" height="20" as="geometry" />
        </mxCell>
        <mxCell id="aOOabZM7SZLnajDP1h2--81" value="C" style="text;html=1;strokeColor=none;fillColor=none;align=center;verticalAlign=middle;whiteSpace=wrap;rounded=0;" parent="1" vertex="1">
          <mxGeometry x="260" y="410" width="40" height="20" as="geometry" />
        </mxCell>
        <mxCell id="aOOabZM7SZLnajDP1h2--82" value="G" style="text;html=1;strokeColor=none;fillColor=none;align=center;verticalAlign=middle;whiteSpace=wrap;rounded=0;" parent="1" vertex="1">
          <mxGeometry x="260" y="450" width="40" height="20" as="geometry" />
        </mxCell>
        <mxCell id="aOOabZM7SZLnajDP1h2--83" value="T" style="text;html=1;strokeColor=none;fillColor=none;align=center;verticalAlign=middle;whiteSpace=wrap;rounded=0;" parent="1" vertex="1">
          <mxGeometry x="260" y="490" width="40" height="20" as="geometry" />
        </mxCell>
        <mxCell id="aOOabZM7SZLnajDP1h2--84" value="" style="rounded=0;whiteSpace=wrap;html=1;" parent="1" vertex="1">
          <mxGeometry x="260" y="360" width="40" height="160" as="geometry" />
        </mxCell>
        <mxCell id="aOOabZM7SZLnajDP1h2--85" value="" style="rounded=0;whiteSpace=wrap;html=1;fillColor=#dae8fc;strokeColor=#6c8ebf;" parent="1" vertex="1">
          <mxGeometry x="260" y="400" width="40" height="40" as="geometry" />
        </mxCell>
        <mxCell id="aOOabZM7SZLnajDP1h2--86" value="" style="rounded=0;whiteSpace=wrap;html=1;" parent="1" vertex="1">
          <mxGeometry x="260" y="440" width="40" height="40" as="geometry" />
        </mxCell>
        <mxCell id="aOOabZM7SZLnajDP1h2--87" value="" style="rounded=0;whiteSpace=wrap;html=1;" parent="1" vertex="1">
          <mxGeometry x="260" y="480" width="40" height="40" as="geometry" />
        </mxCell>
        <mxCell id="aOOabZM7SZLnajDP1h2--88" value="" style="rounded=0;whiteSpace=wrap;html=1;" parent="1" vertex="1">
          <mxGeometry x="260" y="360" width="40" height="40" as="geometry" />
        </mxCell>
        <mxCell id="aOOabZM7SZLnajDP1h2--89" value="&lt;div&gt;A&lt;/div&gt;" style="text;html=1;strokeColor=none;fillColor=none;align=center;verticalAlign=middle;whiteSpace=wrap;rounded=0;" parent="1" vertex="1">
          <mxGeometry x="260" y="370" width="40" height="20" as="geometry" />
        </mxCell>
        <mxCell id="aOOabZM7SZLnajDP1h2--90" value="C" style="text;html=1;strokeColor=none;fillColor=none;align=center;verticalAlign=middle;whiteSpace=wrap;rounded=0;" parent="1" vertex="1">
          <mxGeometry x="260" y="410" width="40" height="20" as="geometry" />
        </mxCell>
        <mxCell id="aOOabZM7SZLnajDP1h2--91" value="G" style="text;html=1;strokeColor=none;fillColor=none;align=center;verticalAlign=middle;whiteSpace=wrap;rounded=0;" parent="1" vertex="1">
          <mxGeometry x="260" y="450" width="40" height="20" as="geometry" />
        </mxCell>
        <mxCell id="aOOabZM7SZLnajDP1h2--92" value="T" style="text;html=1;strokeColor=none;fillColor=none;align=center;verticalAlign=middle;whiteSpace=wrap;rounded=0;" parent="1" vertex="1">
          <mxGeometry x="260" y="490" width="40" height="20" as="geometry" />
        </mxCell>
        <mxCell id="aOOabZM7SZLnajDP1h2--93" value="" style="rounded=0;whiteSpace=wrap;html=1;" parent="1" vertex="1">
          <mxGeometry x="300" y="360" width="40" height="160" as="geometry" />
        </mxCell>
        <mxCell id="aOOabZM7SZLnajDP1h2--94" value="" style="rounded=0;whiteSpace=wrap;html=1;fillColor=#dae8fc;strokeColor=#6c8ebf;" parent="1" vertex="1">
          <mxGeometry x="300" y="400" width="40" height="40" as="geometry" />
        </mxCell>
        <mxCell id="aOOabZM7SZLnajDP1h2--95" value="" style="rounded=0;whiteSpace=wrap;html=1;" parent="1" vertex="1">
          <mxGeometry x="300" y="440" width="40" height="40" as="geometry" />
        </mxCell>
        <mxCell id="aOOabZM7SZLnajDP1h2--96" value="" style="rounded=0;whiteSpace=wrap;html=1;" parent="1" vertex="1">
          <mxGeometry x="300" y="480" width="40" height="40" as="geometry" />
        </mxCell>
        <mxCell id="aOOabZM7SZLnajDP1h2--97" value="" style="rounded=0;whiteSpace=wrap;html=1;" parent="1" vertex="1">
          <mxGeometry x="300" y="360" width="40" height="40" as="geometry" />
        </mxCell>
        <mxCell id="aOOabZM7SZLnajDP1h2--98" value="&lt;div&gt;A&lt;/div&gt;" style="text;html=1;strokeColor=none;fillColor=none;align=center;verticalAlign=middle;whiteSpace=wrap;rounded=0;" parent="1" vertex="1">
          <mxGeometry x="300" y="370" width="40" height="20" as="geometry" />
        </mxCell>
        <mxCell id="aOOabZM7SZLnajDP1h2--99" value="C" style="text;html=1;strokeColor=none;fillColor=none;align=center;verticalAlign=middle;whiteSpace=wrap;rounded=0;" parent="1" vertex="1">
          <mxGeometry x="300" y="410" width="40" height="20" as="geometry" />
        </mxCell>
        <mxCell id="aOOabZM7SZLnajDP1h2--100" value="G" style="text;html=1;strokeColor=none;fillColor=none;align=center;verticalAlign=middle;whiteSpace=wrap;rounded=0;" parent="1" vertex="1">
          <mxGeometry x="300" y="450" width="40" height="20" as="geometry" />
        </mxCell>
        <mxCell id="aOOabZM7SZLnajDP1h2--101" value="T" style="text;html=1;strokeColor=none;fillColor=none;align=center;verticalAlign=middle;whiteSpace=wrap;rounded=0;" parent="1" vertex="1">
          <mxGeometry x="300" y="490" width="40" height="20" as="geometry" />
        </mxCell>
        <mxCell id="aOOabZM7SZLnajDP1h2--102" value="" style="rounded=0;whiteSpace=wrap;html=1;" parent="1" vertex="1">
          <mxGeometry x="300" y="360" width="40" height="160" as="geometry" />
        </mxCell>
        <mxCell id="aOOabZM7SZLnajDP1h2--103" value="" style="rounded=0;whiteSpace=wrap;html=1;" parent="1" vertex="1">
          <mxGeometry x="300" y="400" width="40" height="40" as="geometry" />
        </mxCell>
        <mxCell id="aOOabZM7SZLnajDP1h2--104" value="" style="rounded=0;whiteSpace=wrap;html=1;fillColor=#f8cecc;strokeColor=#b85450;" parent="1" vertex="1">
          <mxGeometry x="300" y="440" width="40" height="40" as="geometry" />
        </mxCell>
        <mxCell id="aOOabZM7SZLnajDP1h2--105" value="" style="rounded=0;whiteSpace=wrap;html=1;" parent="1" vertex="1">
          <mxGeometry x="300" y="480" width="40" height="40" as="geometry" />
        </mxCell>
        <mxCell id="aOOabZM7SZLnajDP1h2--106" value="" style="rounded=0;whiteSpace=wrap;html=1;" parent="1" vertex="1">
          <mxGeometry x="300" y="360" width="40" height="40" as="geometry" />
        </mxCell>
        <mxCell id="aOOabZM7SZLnajDP1h2--107" value="&lt;div&gt;A&lt;/div&gt;" style="text;html=1;strokeColor=none;fillColor=none;align=center;verticalAlign=middle;whiteSpace=wrap;rounded=0;" parent="1" vertex="1">
          <mxGeometry x="300" y="370" width="40" height="20" as="geometry" />
        </mxCell>
        <mxCell id="aOOabZM7SZLnajDP1h2--108" value="C" style="text;html=1;strokeColor=none;fillColor=none;align=center;verticalAlign=middle;whiteSpace=wrap;rounded=0;" parent="1" vertex="1">
          <mxGeometry x="300" y="410" width="40" height="20" as="geometry" />
        </mxCell>
        <mxCell id="aOOabZM7SZLnajDP1h2--109" value="G" style="text;html=1;strokeColor=none;fillColor=none;align=center;verticalAlign=middle;whiteSpace=wrap;rounded=0;" parent="1" vertex="1">
          <mxGeometry x="300" y="450" width="40" height="20" as="geometry" />
        </mxCell>
        <mxCell id="aOOabZM7SZLnajDP1h2--110" value="T" style="text;html=1;strokeColor=none;fillColor=none;align=center;verticalAlign=middle;whiteSpace=wrap;rounded=0;" parent="1" vertex="1">
          <mxGeometry x="300" y="490" width="40" height="20" as="geometry" />
        </mxCell>
        <mxCell id="aOOabZM7SZLnajDP1h2--111" value="" style="rounded=0;whiteSpace=wrap;html=1;" parent="1" vertex="1">
          <mxGeometry x="340" y="360" width="40" height="160" as="geometry" />
        </mxCell>
        <mxCell id="aOOabZM7SZLnajDP1h2--112" value="" style="rounded=0;whiteSpace=wrap;html=1;fillColor=#dae8fc;strokeColor=#6c8ebf;" parent="1" vertex="1">
          <mxGeometry x="340" y="400" width="40" height="40" as="geometry" />
        </mxCell>
        <mxCell id="aOOabZM7SZLnajDP1h2--113" value="" style="rounded=0;whiteSpace=wrap;html=1;" parent="1" vertex="1">
          <mxGeometry x="340" y="440" width="40" height="40" as="geometry" />
        </mxCell>
        <mxCell id="aOOabZM7SZLnajDP1h2--114" value="" style="rounded=0;whiteSpace=wrap;html=1;" parent="1" vertex="1">
          <mxGeometry x="340" y="480" width="40" height="40" as="geometry" />
        </mxCell>
        <mxCell id="aOOabZM7SZLnajDP1h2--115" value="" style="rounded=0;whiteSpace=wrap;html=1;" parent="1" vertex="1">
          <mxGeometry x="340" y="360" width="40" height="40" as="geometry" />
        </mxCell>
        <mxCell id="aOOabZM7SZLnajDP1h2--116" value="&lt;div&gt;A&lt;/div&gt;" style="text;html=1;strokeColor=none;fillColor=none;align=center;verticalAlign=middle;whiteSpace=wrap;rounded=0;" parent="1" vertex="1">
          <mxGeometry x="340" y="370" width="40" height="20" as="geometry" />
        </mxCell>
        <mxCell id="aOOabZM7SZLnajDP1h2--117" value="C" style="text;html=1;strokeColor=none;fillColor=none;align=center;verticalAlign=middle;whiteSpace=wrap;rounded=0;" parent="1" vertex="1">
          <mxGeometry x="340" y="410" width="40" height="20" as="geometry" />
        </mxCell>
        <mxCell id="aOOabZM7SZLnajDP1h2--118" value="G" style="text;html=1;strokeColor=none;fillColor=none;align=center;verticalAlign=middle;whiteSpace=wrap;rounded=0;" parent="1" vertex="1">
          <mxGeometry x="340" y="450" width="40" height="20" as="geometry" />
        </mxCell>
        <mxCell id="aOOabZM7SZLnajDP1h2--119" value="T" style="text;html=1;strokeColor=none;fillColor=none;align=center;verticalAlign=middle;whiteSpace=wrap;rounded=0;" parent="1" vertex="1">
          <mxGeometry x="340" y="490" width="40" height="20" as="geometry" />
        </mxCell>
        <mxCell id="aOOabZM7SZLnajDP1h2--120" value="" style="rounded=0;whiteSpace=wrap;html=1;" parent="1" vertex="1">
          <mxGeometry x="340" y="360" width="40" height="160" as="geometry" />
        </mxCell>
        <mxCell id="aOOabZM7SZLnajDP1h2--121" value="" style="rounded=0;whiteSpace=wrap;html=1;" parent="1" vertex="1">
          <mxGeometry x="340" y="400" width="40" height="40" as="geometry" />
        </mxCell>
        <mxCell id="aOOabZM7SZLnajDP1h2--122" value="" style="rounded=0;whiteSpace=wrap;html=1;" parent="1" vertex="1">
          <mxGeometry x="340" y="440" width="40" height="40" as="geometry" />
        </mxCell>
        <mxCell id="aOOabZM7SZLnajDP1h2--123" value="" style="rounded=0;whiteSpace=wrap;html=1;fillColor=#d5e8d4;strokeColor=#82b366;" parent="1" vertex="1">
          <mxGeometry x="340" y="480" width="40" height="40" as="geometry" />
        </mxCell>
        <mxCell id="aOOabZM7SZLnajDP1h2--124" value="" style="rounded=0;whiteSpace=wrap;html=1;" parent="1" vertex="1">
          <mxGeometry x="340" y="360" width="40" height="40" as="geometry" />
        </mxCell>
        <mxCell id="aOOabZM7SZLnajDP1h2--125" value="&lt;div&gt;A&lt;/div&gt;" style="text;html=1;strokeColor=none;fillColor=none;align=center;verticalAlign=middle;whiteSpace=wrap;rounded=0;" parent="1" vertex="1">
          <mxGeometry x="340" y="370" width="40" height="20" as="geometry" />
        </mxCell>
        <mxCell id="aOOabZM7SZLnajDP1h2--126" style="edgeStyle=orthogonalEdgeStyle;curved=1;rounded=0;orthogonalLoop=1;jettySize=auto;html=1;entryX=0;entryY=0;entryDx=0;entryDy=0;exitX=1;exitY=0;exitDx=0;exitDy=0;" parent="1" source="aOOabZM7SZLnajDP1h2--122" edge="1">
          <mxGeometry relative="1" as="geometry">
            <Array as="points">
              <mxPoint x="425" y="440" />
              <mxPoint x="425" y="324" />
            </Array>
            <mxPoint x="470" y="324" as="targetPoint" />
          </mxGeometry>
        </mxCell>
        <mxCell id="aOOabZM7SZLnajDP1h2--127" value="C" style="text;html=1;align=center;verticalAlign=middle;whiteSpace=wrap;rounded=0;" parent="1" vertex="1">
          <mxGeometry x="340" y="410" width="40" height="20" as="geometry" />
        </mxCell>
        <mxCell id="aOOabZM7SZLnajDP1h2--128" value="G" style="text;html=1;strokeColor=none;fillColor=none;align=center;verticalAlign=middle;whiteSpace=wrap;rounded=0;" parent="1" vertex="1">
          <mxGeometry x="340" y="450" width="40" height="20" as="geometry" />
        </mxCell>
        <mxCell id="aOOabZM7SZLnajDP1h2--129" value="T" style="text;html=1;strokeColor=none;fillColor=none;align=center;verticalAlign=middle;whiteSpace=wrap;rounded=0;" parent="1" vertex="1">
          <mxGeometry x="340" y="490" width="40" height="20" as="geometry" />
        </mxCell>
        <mxCell id="aOOabZM7SZLnajDP1h2--130" value="&lt;div&gt;Enhancer in one-hot&lt;/div&gt;" style="text;html=1;strokeColor=none;fillColor=none;align=center;verticalAlign=middle;whiteSpace=wrap;rounded=0;" parent="1" vertex="1">
          <mxGeometry x="220" y="530" width="160" height="20" as="geometry" />
        </mxCell>
        <mxCell id="Njo-u3qWFfw8xSDJ6qZh-1" value="" style="rounded=0;whiteSpace=wrap;html=1;shadow=1;glass=0;sketch=1;fillColor=#f5f5f5;strokeColor=#666666;fontColor=#333333;" vertex="1" parent="1">
          <mxGeometry x="500" y="233" width="30" height="30" as="geometry" />
        </mxCell>
        <mxCell id="Njo-u3qWFfw8xSDJ6qZh-2" value="" style="rounded=0;whiteSpace=wrap;html=1;shadow=1;glass=0;sketch=1;fillColor=#f5f5f5;strokeColor=#666666;fontColor=#333333;" vertex="1" parent="1">
          <mxGeometry x="470" y="233" width="30" height="30" as="geometry" />
        </mxCell>
        <mxCell id="Njo-u3qWFfw8xSDJ6qZh-3" value="" style="rounded=0;whiteSpace=wrap;html=1;shadow=1;glass=0;sketch=1;fillColor=#f5f5f5;strokeColor=#666666;fontColor=#333333;" vertex="1" parent="1">
          <mxGeometry x="530" y="233" width="30" height="30" as="geometry" />
        </mxCell>
        <mxCell id="Njo-u3qWFfw8xSDJ6qZh-4" value="" style="rounded=0;whiteSpace=wrap;html=1;shadow=1;glass=0;sketch=1;fillColor=#f5f5f5;strokeColor=#666666;fontColor=#333333;" vertex="1" parent="1">
          <mxGeometry x="500" y="263" width="30" height="30" as="geometry" />
        </mxCell>
        <mxCell id="Njo-u3qWFfw8xSDJ6qZh-5" value="" style="rounded=0;whiteSpace=wrap;html=1;shadow=1;glass=0;sketch=1;fillColor=#f5f5f5;strokeColor=#666666;fontColor=#333333;" vertex="1" parent="1">
          <mxGeometry x="470" y="263" width="30" height="30" as="geometry" />
        </mxCell>
        <mxCell id="Njo-u3qWFfw8xSDJ6qZh-6" value="" style="rounded=0;whiteSpace=wrap;html=1;shadow=1;glass=0;sketch=1;fillColor=#f5f5f5;strokeColor=#666666;fontColor=#333333;" vertex="1" parent="1">
          <mxGeometry x="530" y="263" width="30" height="30" as="geometry" />
        </mxCell>
        <mxCell id="Njo-u3qWFfw8xSDJ6qZh-7" value="" style="rounded=0;whiteSpace=wrap;html=1;shadow=1;glass=0;sketch=1;fillColor=#f5f5f5;strokeColor=#666666;fontColor=#333333;" vertex="1" parent="1">
          <mxGeometry x="500" y="293" width="30" height="30" as="geometry" />
        </mxCell>
        <mxCell id="Njo-u3qWFfw8xSDJ6qZh-8" value="" style="rounded=0;whiteSpace=wrap;html=1;shadow=1;glass=0;sketch=1;fillColor=#f5f5f5;strokeColor=#666666;fontColor=#333333;" vertex="1" parent="1">
          <mxGeometry x="470" y="293" width="30" height="30" as="geometry" />
        </mxCell>
        <mxCell id="Njo-u3qWFfw8xSDJ6qZh-101" style="edgeStyle=orthogonalEdgeStyle;rounded=0;orthogonalLoop=1;jettySize=auto;html=1;entryX=0;entryY=0.5;entryDx=0;entryDy=0;" edge="1" parent="1" source="Njo-u3qWFfw8xSDJ6qZh-9" target="Njo-u3qWFfw8xSDJ6qZh-29">
          <mxGeometry relative="1" as="geometry">
            <Array as="points">
              <mxPoint x="590" y="321" />
              <mxPoint x="590" y="321" />
            </Array>
          </mxGeometry>
        </mxCell>
        <mxCell id="Njo-u3qWFfw8xSDJ6qZh-9" value="" style="rounded=0;whiteSpace=wrap;html=1;shadow=1;glass=0;sketch=1;fillColor=#f5f5f5;strokeColor=#666666;fontColor=#333333;" vertex="1" parent="1">
          <mxGeometry x="530" y="293" width="30" height="30" as="geometry" />
        </mxCell>
        <mxCell id="Njo-u3qWFfw8xSDJ6qZh-10" value="" style="rounded=0;whiteSpace=wrap;html=1;shadow=1;glass=0;sketch=1;fillColor=#f5f5f5;strokeColor=#666666;fontColor=#333333;" vertex="1" parent="1">
          <mxGeometry x="500" y="323" width="30" height="30" as="geometry" />
        </mxCell>
        <mxCell id="Njo-u3qWFfw8xSDJ6qZh-11" value="" style="rounded=0;whiteSpace=wrap;html=1;shadow=1;glass=0;sketch=1;fillColor=#f5f5f5;strokeColor=#666666;fontColor=#333333;" vertex="1" parent="1">
          <mxGeometry x="470" y="323" width="30" height="30" as="geometry" />
        </mxCell>
        <mxCell id="Njo-u3qWFfw8xSDJ6qZh-12" value="" style="rounded=0;whiteSpace=wrap;html=1;shadow=1;glass=0;sketch=1;fillColor=#f5f5f5;strokeColor=#666666;fontColor=#333333;" vertex="1" parent="1">
          <mxGeometry x="530" y="323" width="30" height="30" as="geometry" />
        </mxCell>
        <mxCell id="Njo-u3qWFfw8xSDJ6qZh-13" value="" style="rounded=0;whiteSpace=wrap;html=1;shadow=1;glass=0;sketch=1;fillColor=#f5f5f5;strokeColor=#666666;fontColor=#333333;" vertex="1" parent="1">
          <mxGeometry x="500" y="353" width="30" height="30" as="geometry" />
        </mxCell>
        <mxCell id="Njo-u3qWFfw8xSDJ6qZh-14" value="" style="rounded=0;whiteSpace=wrap;html=1;shadow=1;glass=0;sketch=1;fillColor=#f5f5f5;strokeColor=#666666;fontColor=#333333;" vertex="1" parent="1">
          <mxGeometry x="470" y="353" width="30" height="30" as="geometry" />
        </mxCell>
        <mxCell id="Njo-u3qWFfw8xSDJ6qZh-15" value="" style="rounded=0;whiteSpace=wrap;html=1;shadow=1;glass=0;sketch=1;fillColor=#f5f5f5;strokeColor=#666666;fontColor=#333333;" vertex="1" parent="1">
          <mxGeometry x="530" y="353" width="30" height="30" as="geometry" />
        </mxCell>
        <mxCell id="Njo-u3qWFfw8xSDJ6qZh-16" value="" style="rounded=0;whiteSpace=wrap;html=1;shadow=1;glass=0;sketch=1;fillColor=#f5f5f5;strokeColor=#666666;fontColor=#333333;" vertex="1" parent="1">
          <mxGeometry x="500" y="383" width="30" height="30" as="geometry" />
        </mxCell>
        <mxCell id="Njo-u3qWFfw8xSDJ6qZh-17" value="" style="rounded=0;whiteSpace=wrap;html=1;shadow=1;glass=0;sketch=1;fillColor=#f5f5f5;strokeColor=#666666;fontColor=#333333;" vertex="1" parent="1">
          <mxGeometry x="470" y="383" width="30" height="30" as="geometry" />
        </mxCell>
        <mxCell id="Njo-u3qWFfw8xSDJ6qZh-18" value="" style="rounded=0;whiteSpace=wrap;html=1;shadow=1;glass=0;sketch=1;fillColor=#f5f5f5;strokeColor=#666666;fontColor=#333333;" vertex="1" parent="1">
          <mxGeometry x="530" y="383" width="30" height="30" as="geometry" />
        </mxCell>
        <mxCell id="Njo-u3qWFfw8xSDJ6qZh-19" value="DNA2VEC embedding" style="text;html=1;strokeColor=none;fillColor=none;align=center;verticalAlign=middle;whiteSpace=wrap;rounded=0;" vertex="1" parent="1">
          <mxGeometry x="435" y="428" width="160" height="20" as="geometry" />
        </mxCell>
        <mxCell id="Njo-u3qWFfw8xSDJ6qZh-20" style="rounded=1;jumpSize=20;orthogonalLoop=1;jettySize=auto;html=1;entryX=0;entryY=0.5;entryDx=0;entryDy=0;strokeWidth=1;" edge="1" parent="1" source="Njo-u3qWFfw8xSDJ6qZh-21" target="Njo-u3qWFfw8xSDJ6qZh-46">
          <mxGeometry relative="1" as="geometry" />
        </mxCell>
        <mxCell id="Njo-u3qWFfw8xSDJ6qZh-21" value="" style="ellipse;whiteSpace=wrap;html=1;aspect=fixed;" vertex="1" parent="1">
          <mxGeometry x="668" y="186" width="30" height="30" as="geometry" />
        </mxCell>
        <mxCell id="Njo-u3qWFfw8xSDJ6qZh-22" style="edgeStyle=none;rounded=0;orthogonalLoop=1;jettySize=auto;html=1;entryX=0;entryY=0.5;entryDx=0;entryDy=0;" edge="1" parent="1" source="Njo-u3qWFfw8xSDJ6qZh-23" target="Njo-u3qWFfw8xSDJ6qZh-41">
          <mxGeometry relative="1" as="geometry" />
        </mxCell>
        <mxCell id="Njo-u3qWFfw8xSDJ6qZh-23" value="" style="ellipse;whiteSpace=wrap;html=1;aspect=fixed;" vertex="1" parent="1">
          <mxGeometry x="668" y="226" width="30" height="30" as="geometry" />
        </mxCell>
        <mxCell id="Njo-u3qWFfw8xSDJ6qZh-24" style="rounded=1;jumpSize=20;orthogonalLoop=1;jettySize=auto;html=1;entryX=0;entryY=0.5;entryDx=0;entryDy=0;strokeWidth=1;" edge="1" parent="1" source="Njo-u3qWFfw8xSDJ6qZh-27" target="Njo-u3qWFfw8xSDJ6qZh-39">
          <mxGeometry relative="1" as="geometry" />
        </mxCell>
        <mxCell id="Njo-u3qWFfw8xSDJ6qZh-25" style="edgeStyle=none;rounded=1;jumpSize=20;orthogonalLoop=1;jettySize=auto;html=1;entryX=0;entryY=0.5;entryDx=0;entryDy=0;strokeWidth=1;" edge="1" parent="1" source="Njo-u3qWFfw8xSDJ6qZh-27" target="Njo-u3qWFfw8xSDJ6qZh-52">
          <mxGeometry relative="1" as="geometry" />
        </mxCell>
        <mxCell id="Njo-u3qWFfw8xSDJ6qZh-26" style="edgeStyle=none;rounded=1;jumpSize=20;orthogonalLoop=1;jettySize=auto;html=1;entryX=0;entryY=0.5;entryDx=0;entryDy=0;strokeWidth=1;" edge="1" parent="1" source="Njo-u3qWFfw8xSDJ6qZh-27" target="Njo-u3qWFfw8xSDJ6qZh-49">
          <mxGeometry relative="1" as="geometry" />
        </mxCell>
        <mxCell id="Njo-u3qWFfw8xSDJ6qZh-27" value="" style="ellipse;whiteSpace=wrap;html=1;aspect=fixed;" vertex="1" parent="1">
          <mxGeometry x="668" y="266" width="30" height="30" as="geometry" />
        </mxCell>
        <mxCell id="Njo-u3qWFfw8xSDJ6qZh-28" style="rounded=1;jumpSize=20;orthogonalLoop=1;jettySize=auto;html=1;entryX=0;entryY=0.5;entryDx=0;entryDy=0;strokeWidth=1;" edge="1" parent="1" source="Njo-u3qWFfw8xSDJ6qZh-29" target="Njo-u3qWFfw8xSDJ6qZh-42">
          <mxGeometry relative="1" as="geometry" />
        </mxCell>
        <mxCell id="Njo-u3qWFfw8xSDJ6qZh-29" value="" style="ellipse;whiteSpace=wrap;html=1;aspect=fixed;" vertex="1" parent="1">
          <mxGeometry x="668" y="306" width="30" height="30" as="geometry" />
        </mxCell>
        <mxCell id="Njo-u3qWFfw8xSDJ6qZh-30" style="rounded=1;jumpSize=20;orthogonalLoop=1;jettySize=auto;html=1;entryX=0;entryY=0.5;entryDx=0;entryDy=0;strokeWidth=1;" edge="1" parent="1" source="Njo-u3qWFfw8xSDJ6qZh-33" target="Njo-u3qWFfw8xSDJ6qZh-41">
          <mxGeometry relative="1" as="geometry" />
        </mxCell>
        <mxCell id="Njo-u3qWFfw8xSDJ6qZh-31" style="edgeStyle=none;rounded=1;jumpSize=20;orthogonalLoop=1;jettySize=auto;html=1;entryX=0;entryY=0.5;entryDx=0;entryDy=0;strokeWidth=1;" edge="1" parent="1" source="Njo-u3qWFfw8xSDJ6qZh-33" target="Njo-u3qWFfw8xSDJ6qZh-54">
          <mxGeometry relative="1" as="geometry" />
        </mxCell>
        <mxCell id="Njo-u3qWFfw8xSDJ6qZh-32" style="edgeStyle=none;rounded=1;jumpSize=20;orthogonalLoop=1;jettySize=auto;html=1;entryX=0;entryY=0.5;entryDx=0;entryDy=0;strokeWidth=1;" edge="1" parent="1" source="Njo-u3qWFfw8xSDJ6qZh-33" target="Njo-u3qWFfw8xSDJ6qZh-52">
          <mxGeometry relative="1" as="geometry" />
        </mxCell>
        <mxCell id="Njo-u3qWFfw8xSDJ6qZh-33" value="" style="ellipse;whiteSpace=wrap;html=1;aspect=fixed;" vertex="1" parent="1">
          <mxGeometry x="668" y="346" width="30" height="30" as="geometry" />
        </mxCell>
        <mxCell id="Njo-u3qWFfw8xSDJ6qZh-34" style="edgeStyle=none;rounded=1;jumpSize=20;orthogonalLoop=1;jettySize=auto;html=1;entryX=0;entryY=0.5;entryDx=0;entryDy=0;strokeWidth=1;" edge="1" parent="1" source="Njo-u3qWFfw8xSDJ6qZh-35" target="Njo-u3qWFfw8xSDJ6qZh-41">
          <mxGeometry relative="1" as="geometry" />
        </mxCell>
        <mxCell id="Njo-u3qWFfw8xSDJ6qZh-35" value="" style="ellipse;whiteSpace=wrap;html=1;aspect=fixed;" vertex="1" parent="1">
          <mxGeometry x="668" y="386" width="30" height="30" as="geometry" />
        </mxCell>
        <mxCell id="Njo-u3qWFfw8xSDJ6qZh-36" style="edgeStyle=none;rounded=1;jumpSize=20;orthogonalLoop=1;jettySize=auto;html=1;entryX=0;entryY=0.5;entryDx=0;entryDy=0;strokeWidth=1;" edge="1" parent="1" source="Njo-u3qWFfw8xSDJ6qZh-37" target="Njo-u3qWFfw8xSDJ6qZh-52">
          <mxGeometry relative="1" as="geometry" />
        </mxCell>
        <mxCell id="Njo-u3qWFfw8xSDJ6qZh-37" value="" style="ellipse;whiteSpace=wrap;html=1;aspect=fixed;" vertex="1" parent="1">
          <mxGeometry x="668" y="426" width="30" height="30" as="geometry" />
        </mxCell>
        <mxCell id="Njo-u3qWFfw8xSDJ6qZh-38" style="edgeStyle=none;rounded=1;jumpSize=20;orthogonalLoop=1;jettySize=auto;html=1;entryX=0;entryY=0.5;entryDx=0;entryDy=0;strokeWidth=1;" edge="1" parent="1" source="Njo-u3qWFfw8xSDJ6qZh-39" target="Njo-u3qWFfw8xSDJ6qZh-65">
          <mxGeometry relative="1" as="geometry" />
        </mxCell>
        <mxCell id="Njo-u3qWFfw8xSDJ6qZh-39" value="" style="ellipse;whiteSpace=wrap;html=1;aspect=fixed;" vertex="1" parent="1">
          <mxGeometry x="748" y="186" width="30" height="30" as="geometry" />
        </mxCell>
        <mxCell id="Njo-u3qWFfw8xSDJ6qZh-40" style="edgeStyle=none;rounded=1;jumpSize=20;orthogonalLoop=1;jettySize=auto;html=1;entryX=0;entryY=0.5;entryDx=0;entryDy=0;strokeWidth=1;" edge="1" parent="1" source="Njo-u3qWFfw8xSDJ6qZh-41" target="Njo-u3qWFfw8xSDJ6qZh-70">
          <mxGeometry relative="1" as="geometry" />
        </mxCell>
        <mxCell id="Njo-u3qWFfw8xSDJ6qZh-41" value="" style="ellipse;whiteSpace=wrap;html=1;aspect=fixed;" vertex="1" parent="1">
          <mxGeometry x="748" y="226" width="30" height="30" as="geometry" />
        </mxCell>
        <mxCell id="Njo-u3qWFfw8xSDJ6qZh-42" value="" style="ellipse;whiteSpace=wrap;html=1;aspect=fixed;" vertex="1" parent="1">
          <mxGeometry x="748" y="266" width="30" height="30" as="geometry" />
        </mxCell>
        <mxCell id="Njo-u3qWFfw8xSDJ6qZh-43" style="edgeStyle=none;rounded=1;jumpSize=20;orthogonalLoop=1;jettySize=auto;html=1;entryX=0;entryY=0.5;entryDx=0;entryDy=0;strokeWidth=1;" edge="1" parent="1" source="Njo-u3qWFfw8xSDJ6qZh-46" target="Njo-u3qWFfw8xSDJ6qZh-59">
          <mxGeometry relative="1" as="geometry" />
        </mxCell>
        <mxCell id="Njo-u3qWFfw8xSDJ6qZh-44" style="edgeStyle=none;rounded=1;jumpSize=20;orthogonalLoop=1;jettySize=auto;html=1;entryX=0;entryY=0.5;entryDx=0;entryDy=0;strokeWidth=1;" edge="1" parent="1" source="Njo-u3qWFfw8xSDJ6qZh-46" target="Njo-u3qWFfw8xSDJ6qZh-67">
          <mxGeometry relative="1" as="geometry" />
        </mxCell>
        <mxCell id="Njo-u3qWFfw8xSDJ6qZh-45" style="edgeStyle=none;rounded=1;jumpSize=20;orthogonalLoop=1;jettySize=auto;html=1;entryX=0;entryY=0.5;entryDx=0;entryDy=0;strokeWidth=1;" edge="1" parent="1" source="Njo-u3qWFfw8xSDJ6qZh-46" target="Njo-u3qWFfw8xSDJ6qZh-61">
          <mxGeometry relative="1" as="geometry" />
        </mxCell>
        <mxCell id="Njo-u3qWFfw8xSDJ6qZh-46" value="" style="ellipse;whiteSpace=wrap;html=1;aspect=fixed;" vertex="1" parent="1">
          <mxGeometry x="748" y="306" width="30" height="30" as="geometry" />
        </mxCell>
        <mxCell id="Njo-u3qWFfw8xSDJ6qZh-47" style="edgeStyle=none;rounded=1;jumpSize=20;orthogonalLoop=1;jettySize=auto;html=1;entryX=0;entryY=0.5;entryDx=0;entryDy=0;strokeWidth=1;" edge="1" parent="1" source="Njo-u3qWFfw8xSDJ6qZh-49" target="Njo-u3qWFfw8xSDJ6qZh-61">
          <mxGeometry relative="1" as="geometry" />
        </mxCell>
        <mxCell id="Njo-u3qWFfw8xSDJ6qZh-48" style="edgeStyle=none;rounded=1;jumpSize=20;orthogonalLoop=1;jettySize=auto;html=1;entryX=0;entryY=0.5;entryDx=0;entryDy=0;strokeWidth=1;" edge="1" parent="1" source="Njo-u3qWFfw8xSDJ6qZh-49" target="Njo-u3qWFfw8xSDJ6qZh-70">
          <mxGeometry relative="1" as="geometry" />
        </mxCell>
        <mxCell id="Njo-u3qWFfw8xSDJ6qZh-49" value="" style="ellipse;whiteSpace=wrap;html=1;aspect=fixed;" vertex="1" parent="1">
          <mxGeometry x="748" y="346" width="30" height="30" as="geometry" />
        </mxCell>
        <mxCell id="Njo-u3qWFfw8xSDJ6qZh-50" style="edgeStyle=none;rounded=1;jumpSize=20;orthogonalLoop=1;jettySize=auto;html=1;entryX=0;entryY=0.5;entryDx=0;entryDy=0;strokeWidth=1;" edge="1" parent="1" source="Njo-u3qWFfw8xSDJ6qZh-52" target="Njo-u3qWFfw8xSDJ6qZh-63">
          <mxGeometry relative="1" as="geometry" />
        </mxCell>
        <mxCell id="Njo-u3qWFfw8xSDJ6qZh-51" style="edgeStyle=none;rounded=1;jumpSize=20;orthogonalLoop=1;jettySize=auto;html=1;entryX=0;entryY=0.5;entryDx=0;entryDy=0;strokeWidth=1;" edge="1" parent="1" source="Njo-u3qWFfw8xSDJ6qZh-52" target="Njo-u3qWFfw8xSDJ6qZh-72">
          <mxGeometry relative="1" as="geometry" />
        </mxCell>
        <mxCell id="Njo-u3qWFfw8xSDJ6qZh-52" value="" style="ellipse;whiteSpace=wrap;html=1;aspect=fixed;" vertex="1" parent="1">
          <mxGeometry x="748" y="386" width="30" height="30" as="geometry" />
        </mxCell>
        <mxCell id="Njo-u3qWFfw8xSDJ6qZh-53" style="edgeStyle=none;rounded=1;jumpSize=20;orthogonalLoop=1;jettySize=auto;html=1;entryX=0;entryY=0.5;entryDx=0;entryDy=0;strokeWidth=1;" edge="1" parent="1" source="Njo-u3qWFfw8xSDJ6qZh-54" target="Njo-u3qWFfw8xSDJ6qZh-67">
          <mxGeometry relative="1" as="geometry" />
        </mxCell>
        <mxCell id="Njo-u3qWFfw8xSDJ6qZh-54" value="" style="ellipse;whiteSpace=wrap;html=1;aspect=fixed;" vertex="1" parent="1">
          <mxGeometry x="748" y="426" width="30" height="30" as="geometry" />
        </mxCell>
        <mxCell id="Njo-u3qWFfw8xSDJ6qZh-55" value="Dense layers" style="text;html=1;strokeColor=none;fillColor=none;align=center;verticalAlign=middle;whiteSpace=wrap;rounded=0;" vertex="1" parent="1">
          <mxGeometry x="718" y="471" width="250" height="20" as="geometry" />
        </mxCell>
        <mxCell id="Njo-u3qWFfw8xSDJ6qZh-56" value="Flatten" style="text;html=1;strokeColor=none;fillColor=none;align=center;verticalAlign=middle;whiteSpace=wrap;rounded=0;" vertex="1" parent="1">
          <mxGeometry x="558" y="471" width="250" height="20" as="geometry" />
        </mxCell>
        <mxCell id="Njo-u3qWFfw8xSDJ6qZh-57" style="edgeStyle=none;rounded=1;jumpSize=20;orthogonalLoop=1;jettySize=auto;html=1;entryX=0;entryY=0.5;entryDx=0;entryDy=0;strokeWidth=1;" edge="1" parent="1" source="Njo-u3qWFfw8xSDJ6qZh-59" target="Njo-u3qWFfw8xSDJ6qZh-84">
          <mxGeometry relative="1" as="geometry" />
        </mxCell>
        <mxCell id="Njo-u3qWFfw8xSDJ6qZh-58" style="edgeStyle=none;rounded=1;jumpSize=20;orthogonalLoop=1;jettySize=auto;html=1;strokeWidth=1;" edge="1" parent="1" source="Njo-u3qWFfw8xSDJ6qZh-59">
          <mxGeometry relative="1" as="geometry">
            <mxPoint x="907.9999999999995" y="360.9999999999998" as="targetPoint" />
          </mxGeometry>
        </mxCell>
        <mxCell id="Njo-u3qWFfw8xSDJ6qZh-59" value="" style="ellipse;whiteSpace=wrap;html=1;aspect=fixed;" vertex="1" parent="1">
          <mxGeometry x="828" y="186" width="30" height="30" as="geometry" />
        </mxCell>
        <mxCell id="Njo-u3qWFfw8xSDJ6qZh-60" style="edgeStyle=none;rounded=1;jumpSize=20;orthogonalLoop=1;jettySize=auto;html=1;entryX=0;entryY=0.5;entryDx=0;entryDy=0;strokeWidth=1;" edge="1" parent="1" source="Njo-u3qWFfw8xSDJ6qZh-61" target="Njo-u3qWFfw8xSDJ6qZh-90">
          <mxGeometry relative="1" as="geometry" />
        </mxCell>
        <mxCell id="Njo-u3qWFfw8xSDJ6qZh-61" value="" style="ellipse;whiteSpace=wrap;html=1;aspect=fixed;" vertex="1" parent="1">
          <mxGeometry x="828" y="226" width="30" height="30" as="geometry" />
        </mxCell>
        <mxCell id="Njo-u3qWFfw8xSDJ6qZh-62" style="edgeStyle=none;rounded=1;jumpSize=20;orthogonalLoop=1;jettySize=auto;html=1;entryX=0;entryY=0.5;entryDx=0;entryDy=0;strokeWidth=1;" edge="1" parent="1" source="Njo-u3qWFfw8xSDJ6qZh-63" target="Njo-u3qWFfw8xSDJ6qZh-87">
          <mxGeometry relative="1" as="geometry" />
        </mxCell>
        <mxCell id="Njo-u3qWFfw8xSDJ6qZh-63" value="" style="ellipse;whiteSpace=wrap;html=1;aspect=fixed;" vertex="1" parent="1">
          <mxGeometry x="828" y="266" width="30" height="30" as="geometry" />
        </mxCell>
        <mxCell id="Njo-u3qWFfw8xSDJ6qZh-64" style="edgeStyle=none;rounded=1;jumpSize=20;orthogonalLoop=1;jettySize=auto;html=1;entryX=0;entryY=0.5;entryDx=0;entryDy=0;strokeWidth=1;" edge="1" parent="1" source="Njo-u3qWFfw8xSDJ6qZh-65" target="Njo-u3qWFfw8xSDJ6qZh-78">
          <mxGeometry relative="1" as="geometry" />
        </mxCell>
        <mxCell id="Njo-u3qWFfw8xSDJ6qZh-65" value="" style="ellipse;whiteSpace=wrap;html=1;aspect=fixed;" vertex="1" parent="1">
          <mxGeometry x="828" y="306" width="30" height="30" as="geometry" />
        </mxCell>
        <mxCell id="Njo-u3qWFfw8xSDJ6qZh-66" style="edgeStyle=none;rounded=1;jumpSize=20;orthogonalLoop=1;jettySize=auto;html=1;entryX=0;entryY=0.5;entryDx=0;entryDy=0;strokeWidth=1;" edge="1" parent="1" source="Njo-u3qWFfw8xSDJ6qZh-67" target="Njo-u3qWFfw8xSDJ6qZh-93">
          <mxGeometry relative="1" as="geometry" />
        </mxCell>
        <mxCell id="Njo-u3qWFfw8xSDJ6qZh-67" value="" style="ellipse;whiteSpace=wrap;html=1;aspect=fixed;" vertex="1" parent="1">
          <mxGeometry x="828" y="346" width="30" height="30" as="geometry" />
        </mxCell>
        <mxCell id="Njo-u3qWFfw8xSDJ6qZh-68" style="edgeStyle=none;rounded=1;jumpSize=20;orthogonalLoop=1;jettySize=auto;html=1;entryX=0;entryY=0.5;entryDx=0;entryDy=0;strokeWidth=1;" edge="1" parent="1" source="Njo-u3qWFfw8xSDJ6qZh-70" target="Njo-u3qWFfw8xSDJ6qZh-81">
          <mxGeometry relative="1" as="geometry" />
        </mxCell>
        <mxCell id="Njo-u3qWFfw8xSDJ6qZh-69" style="edgeStyle=none;rounded=1;jumpSize=20;orthogonalLoop=1;jettySize=auto;html=1;entryX=0;entryY=0.5;entryDx=0;entryDy=0;strokeWidth=1;" edge="1" parent="1" source="Njo-u3qWFfw8xSDJ6qZh-70" target="Njo-u3qWFfw8xSDJ6qZh-90">
          <mxGeometry relative="1" as="geometry" />
        </mxCell>
        <mxCell id="Njo-u3qWFfw8xSDJ6qZh-70" value="" style="ellipse;whiteSpace=wrap;html=1;aspect=fixed;" vertex="1" parent="1">
          <mxGeometry x="828" y="386" width="30" height="30" as="geometry" />
        </mxCell>
        <mxCell id="Njo-u3qWFfw8xSDJ6qZh-71" style="edgeStyle=none;rounded=1;jumpSize=20;orthogonalLoop=1;jettySize=auto;html=1;entryX=0;entryY=0.5;entryDx=0;entryDy=0;strokeWidth=1;" edge="1" parent="1" source="Njo-u3qWFfw8xSDJ6qZh-72" target="Njo-u3qWFfw8xSDJ6qZh-75">
          <mxGeometry relative="1" as="geometry" />
        </mxCell>
        <mxCell id="Njo-u3qWFfw8xSDJ6qZh-72" value="" style="ellipse;whiteSpace=wrap;html=1;aspect=fixed;" vertex="1" parent="1">
          <mxGeometry x="828" y="426" width="30" height="30" as="geometry" />
        </mxCell>
        <mxCell id="Njo-u3qWFfw8xSDJ6qZh-73" style="edgeStyle=none;rounded=1;jumpSize=20;orthogonalLoop=1;jettySize=auto;html=1;entryX=0;entryY=0.5;entryDx=0;entryDy=0;strokeWidth=1;" edge="1" parent="1" source="Njo-u3qWFfw8xSDJ6qZh-75" target="Njo-u3qWFfw8xSDJ6qZh-95">
          <mxGeometry relative="1" as="geometry" />
        </mxCell>
        <mxCell id="Njo-u3qWFfw8xSDJ6qZh-74" style="edgeStyle=none;rounded=1;jumpSize=20;orthogonalLoop=1;jettySize=auto;html=1;entryX=0;entryY=0.5;entryDx=0;entryDy=0;strokeWidth=1;" edge="1" parent="1" source="Njo-u3qWFfw8xSDJ6qZh-75" target="Njo-u3qWFfw8xSDJ6qZh-96">
          <mxGeometry relative="1" as="geometry" />
        </mxCell>
        <mxCell id="Njo-u3qWFfw8xSDJ6qZh-75" value="" style="ellipse;whiteSpace=wrap;html=1;aspect=fixed;" vertex="1" parent="1">
          <mxGeometry x="908" y="186" width="30" height="30" as="geometry" />
        </mxCell>
        <mxCell id="Njo-u3qWFfw8xSDJ6qZh-76" style="edgeStyle=none;rounded=1;jumpSize=20;orthogonalLoop=1;jettySize=auto;html=1;entryX=0;entryY=0.5;entryDx=0;entryDy=0;strokeWidth=1;" edge="1" parent="1" source="Njo-u3qWFfw8xSDJ6qZh-78" target="Njo-u3qWFfw8xSDJ6qZh-96">
          <mxGeometry relative="1" as="geometry" />
        </mxCell>
        <mxCell id="Njo-u3qWFfw8xSDJ6qZh-77" style="edgeStyle=none;rounded=1;jumpSize=20;orthogonalLoop=1;jettySize=auto;html=1;strokeWidth=1;entryX=-0.001;entryY=0.557;entryDx=0;entryDy=0;entryPerimeter=0;" edge="1" parent="1" source="Njo-u3qWFfw8xSDJ6qZh-78" target="Njo-u3qWFfw8xSDJ6qZh-95">
          <mxGeometry relative="1" as="geometry">
            <mxPoint x="1008" y="321.0000000000001" as="targetPoint" />
          </mxGeometry>
        </mxCell>
        <mxCell id="Njo-u3qWFfw8xSDJ6qZh-78" value="" style="ellipse;whiteSpace=wrap;html=1;aspect=fixed;" vertex="1" parent="1">
          <mxGeometry x="908" y="226" width="30" height="30" as="geometry" />
        </mxCell>
        <mxCell id="Njo-u3qWFfw8xSDJ6qZh-79" style="edgeStyle=none;rounded=1;jumpSize=20;orthogonalLoop=1;jettySize=auto;html=1;entryX=0;entryY=0.5;entryDx=0;entryDy=0;strokeWidth=1;" edge="1" parent="1" source="Njo-u3qWFfw8xSDJ6qZh-81" target="Njo-u3qWFfw8xSDJ6qZh-95">
          <mxGeometry relative="1" as="geometry" />
        </mxCell>
        <mxCell id="Njo-u3qWFfw8xSDJ6qZh-80" style="edgeStyle=none;rounded=1;jumpSize=20;orthogonalLoop=1;jettySize=auto;html=1;strokeWidth=1;" edge="1" parent="1" source="Njo-u3qWFfw8xSDJ6qZh-81">
          <mxGeometry relative="1" as="geometry">
            <mxPoint x="1017.9999999999995" y="360.9999999999998" as="targetPoint" />
          </mxGeometry>
        </mxCell>
        <mxCell id="Njo-u3qWFfw8xSDJ6qZh-81" value="" style="ellipse;whiteSpace=wrap;html=1;aspect=fixed;" vertex="1" parent="1">
          <mxGeometry x="908" y="266" width="30" height="30" as="geometry" />
        </mxCell>
        <mxCell id="Njo-u3qWFfw8xSDJ6qZh-82" style="edgeStyle=none;rounded=1;jumpSize=20;orthogonalLoop=1;jettySize=auto;html=1;entryX=0;entryY=0.5;entryDx=0;entryDy=0;strokeWidth=1;" edge="1" parent="1" source="Njo-u3qWFfw8xSDJ6qZh-84" target="Njo-u3qWFfw8xSDJ6qZh-96">
          <mxGeometry relative="1" as="geometry" />
        </mxCell>
        <mxCell id="Njo-u3qWFfw8xSDJ6qZh-83" style="edgeStyle=none;rounded=1;jumpSize=20;orthogonalLoop=1;jettySize=auto;html=1;strokeWidth=1;" edge="1" parent="1" source="Njo-u3qWFfw8xSDJ6qZh-84">
          <mxGeometry relative="1" as="geometry">
            <mxPoint x="1017.9999999999995" y="320.9999999999998" as="targetPoint" />
          </mxGeometry>
        </mxCell>
        <mxCell id="Njo-u3qWFfw8xSDJ6qZh-84" value="" style="ellipse;whiteSpace=wrap;html=1;aspect=fixed;" vertex="1" parent="1">
          <mxGeometry x="908" y="306" width="30" height="30" as="geometry" />
        </mxCell>
        <mxCell id="Njo-u3qWFfw8xSDJ6qZh-85" style="edgeStyle=none;rounded=1;jumpSize=20;orthogonalLoop=1;jettySize=auto;html=1;entryX=0;entryY=0.5;entryDx=0;entryDy=0;strokeWidth=1;" edge="1" parent="1" source="Njo-u3qWFfw8xSDJ6qZh-87" target="Njo-u3qWFfw8xSDJ6qZh-95">
          <mxGeometry relative="1" as="geometry" />
        </mxCell>
        <mxCell id="Njo-u3qWFfw8xSDJ6qZh-86" style="edgeStyle=none;rounded=1;jumpSize=20;orthogonalLoop=1;jettySize=auto;html=1;strokeWidth=1;entryX=0;entryY=0.5;entryDx=0;entryDy=0;" edge="1" parent="1" source="Njo-u3qWFfw8xSDJ6qZh-87" target="Njo-u3qWFfw8xSDJ6qZh-96">
          <mxGeometry relative="1" as="geometry">
            <mxPoint x="1008" y="361.0000000000001" as="targetPoint" />
          </mxGeometry>
        </mxCell>
        <mxCell id="Njo-u3qWFfw8xSDJ6qZh-87" value="" style="ellipse;whiteSpace=wrap;html=1;aspect=fixed;" vertex="1" parent="1">
          <mxGeometry x="908" y="346" width="30" height="30" as="geometry" />
        </mxCell>
        <mxCell id="Njo-u3qWFfw8xSDJ6qZh-88" style="edgeStyle=none;rounded=1;jumpSize=20;orthogonalLoop=1;jettySize=auto;html=1;strokeWidth=1;" edge="1" parent="1" source="Njo-u3qWFfw8xSDJ6qZh-90">
          <mxGeometry relative="1" as="geometry">
            <mxPoint x="1017.9999999999995" y="360.9999999999998" as="targetPoint" />
          </mxGeometry>
        </mxCell>
        <mxCell id="Njo-u3qWFfw8xSDJ6qZh-89" style="edgeStyle=none;rounded=1;jumpSize=20;orthogonalLoop=1;jettySize=auto;html=1;strokeWidth=1;entryX=0;entryY=0.5;entryDx=0;entryDy=0;" edge="1" parent="1" source="Njo-u3qWFfw8xSDJ6qZh-90" target="Njo-u3qWFfw8xSDJ6qZh-95">
          <mxGeometry relative="1" as="geometry">
            <mxPoint x="1008" y="321.0000000000001" as="targetPoint" />
          </mxGeometry>
        </mxCell>
        <mxCell id="Njo-u3qWFfw8xSDJ6qZh-90" value="" style="ellipse;whiteSpace=wrap;html=1;aspect=fixed;" vertex="1" parent="1">
          <mxGeometry x="908" y="386" width="30" height="30" as="geometry" />
        </mxCell>
        <mxCell id="Njo-u3qWFfw8xSDJ6qZh-91" style="edgeStyle=none;rounded=1;jumpSize=20;orthogonalLoop=1;jettySize=auto;html=1;entryX=0;entryY=0.5;entryDx=0;entryDy=0;strokeWidth=1;" edge="1" parent="1" source="Njo-u3qWFfw8xSDJ6qZh-93" target="Njo-u3qWFfw8xSDJ6qZh-95">
          <mxGeometry relative="1" as="geometry" />
        </mxCell>
        <mxCell id="Njo-u3qWFfw8xSDJ6qZh-92" style="edgeStyle=none;rounded=1;jumpSize=20;orthogonalLoop=1;jettySize=auto;html=1;strokeWidth=1;entryX=0;entryY=0.5;entryDx=0;entryDy=0;" edge="1" parent="1" source="Njo-u3qWFfw8xSDJ6qZh-93" target="Njo-u3qWFfw8xSDJ6qZh-96">
          <mxGeometry relative="1" as="geometry">
            <mxPoint x="1008" y="361.0000000000001" as="targetPoint" />
          </mxGeometry>
        </mxCell>
        <mxCell id="Njo-u3qWFfw8xSDJ6qZh-93" value="" style="ellipse;whiteSpace=wrap;html=1;aspect=fixed;" vertex="1" parent="1">
          <mxGeometry x="908" y="426" width="30" height="30" as="geometry" />
        </mxCell>
        <mxCell id="Njo-u3qWFfw8xSDJ6qZh-94" value="&lt;div&gt;Output&lt;/div&gt;" style="text;html=1;strokeColor=none;fillColor=none;align=center;verticalAlign=middle;whiteSpace=wrap;rounded=0;" vertex="1" parent="1">
          <mxGeometry x="908" y="471" width="250" height="20" as="geometry" />
        </mxCell>
        <mxCell id="Njo-u3qWFfw8xSDJ6qZh-95" value="" style="ellipse;whiteSpace=wrap;html=1;aspect=fixed;fillColor=#dae8fc;strokeColor=#6c8ebf;" vertex="1" parent="1">
          <mxGeometry x="1014" y="306" width="30" height="30" as="geometry" />
        </mxCell>
        <mxCell id="Njo-u3qWFfw8xSDJ6qZh-96" value="" style="ellipse;whiteSpace=wrap;html=1;aspect=fixed;fillColor=#d5e8d4;strokeColor=#82b366;" vertex="1" parent="1">
          <mxGeometry x="1014" y="346" width="30" height="30" as="geometry" />
        </mxCell>
      </root>
    </mxGraphModel>
  </diagram>
</mxfile>
